<?xml version="1.0" standalone="no"?>
<!DOCTYPE svg PUBLIC "-//W3C//DTD SVG 20010904//EN"
 "http://www.w3.org/TR/2001/REC-SVG-20010904/DTD/svg10.dtd">
<svg version="1.0" xmlns="http://www.w3.org/2000/svg"
 width="700.000000pt" height="700.000000pt" viewBox="0 0 700.000000 700.000000"
 preserveAspectRatio="xMidYMid meet">
<metadata>
Created by potrace 1.14, written by Peter Selinger 2001-2017
</metadata>
<g transform="translate(0.000000,700.000000) scale(0.100000,-0.100000)"
fill="#000000" stroke="none">
<path d="M757 6564 c-1 -1 -29 -4 -62 -7 -165 -16 -338 -135 -414 -285 -65
-129 -61 -9 -61 -2005 0 -1299 3 -1829 11 -1868 31 -150 147 -303 279 -368
130 -63 82 -61 1139 -61 531 0 967 -3 970 -6 7 -7 8 -753 1 -755 -3 -1 -104
-3 -226 -4 -242 -1 -269 -7 -298 -56 -16 -27 -18 -61 -18 -328 0 -271 2 -302
18 -330 10 -16 31 -36 47 -42 23 -10 340 -12 1361 -13 1286 0 1333 1 1363 19
18 10 37 31 44 47 13 31 16 590 3 630 -9 30 -40 56 -78 66 -17 4 -128 7 -246
7 l-215 -1 0 377 c0 208 3 380 6 383 3 3 440 6 970 6 918 0 969 1 1032 19 203
59 357 228 391 431 10 62 7 3641 -4 3704 -16 100 -70 198 -153 280 -78 77
-145 116 -249 143 -57 14 -306 16 -2836 17 -1526 1 -2774 0 -2775 0z m2962
-4977 l0 -383 -219 0 -219 0 1 383 0 383 218 0 219 0 0 -383z"/>
</g>
</svg>
