<svg id="Calque_1" data-name="Calque 1" xmlns="http://www.w3.org/2000/svg" viewBox="0 0 583.28 160.98"><defs><style>.cls-1{fill:#252f63;}</style></defs><path class="cls-1" d="M20.91,147.7c7.9,10,17.19,13.71,27.64,13.71,13,0,19.75-5.34,19.75-13.24,0-20.44-55.06-8.83-55.06-47.16,0-19.51,15.57-32.75,40.42-32.75,15.8,0,29,6.27,36.24,13.7L77.36,96.13c-6-6-14.87-9.75-22.77-9.52-12.08.23-18.12,5.57-18.12,13.47,0,22.77,55.75,10.22,55.75,47.62,0,19.05-16.26,31.83-42,31.83-20,0-35.78-7.44-43.44-17.89Z" transform="translate(-6.74 -18.54)"/><path class="cls-1" d="M110.11,123.78c0-31.13,22.76-55.52,55.52-55.52,14.63,0,26.48,4.41,36.23,11.84l-13,16.27a32.75,32.75,0,0,0-22.77-8.83c-20.67,0-33,15.56-33,36.24s12.32,36.47,33,36.47a32.75,32.75,0,0,0,22.77-8.83l13,16.26c-9.75,7.44-21.6,11.85-36.23,11.85C132.87,179.53,110.11,155.14,110.11,123.78Z" transform="translate(-6.74 -18.54)"/><path class="cls-1" d="M286,71.74,279.21,91A24.41,24.41,0,0,0,269,88.93c-16.72,0-25.78,15.33-25.78,32.52v55.06h-22.3V71h19.51L243,85c6.27-10.68,14.63-16.72,26.94-16.72C276.89,68.26,283.16,70.12,286,71.74Z" transform="translate(-6.74 -18.54)"/><path class="cls-1" d="M301.28,36.43a14.64,14.64,0,0,1,29.27,0,14.64,14.64,0,0,1-29.27,0ZM305,71h22.3V176.51H305Z" transform="translate(-6.74 -18.54)"/><path class="cls-1" d="M466,123.78c0,34.38-21.84,55.28-49.25,55.28-16,0-28.11-6.5-36.24-16.95l-2.79,14.4H359.35v-158h22.3V83.82c8.13-9.52,20-15.56,35.08-15.56C444.14,68.26,466,89.4,466,123.78Zm-23,0c0-20.68-12.55-36.47-31.6-36.47-19.74,0-32.52,15.79-32.52,36.47S391.64,160,411.38,160C430.43,160,443,144.45,443,123.78Z" transform="translate(-6.74 -18.54)"/><path class="cls-1" d="M590,128.66H507.55c1.63,18.81,13.47,32.52,33.22,32.52,11.85,0,20.91-4,27.64-11.62L584,162.11c-9.53,10.68-24.86,16.95-43,16.95-34.61,0-57.14-24.15-57.14-55.28s22.76-55.52,54.35-55.52c30.67,0,51.81,21.83,51.81,53.19Zm-81.54-15.57h59.24c-2.33-16.72-13-26.71-29.51-26.71C522.65,86.38,511.73,97.06,508.48,113.09Z" transform="translate(-6.74 -18.54)"/></svg>